<?xml version="1.0" encoding="UTF-8"?>
<svg id="Layer_1" data-name="Layer 1" xmlns="http://www.w3.org/2000/svg" viewBox="0 0 107.58 125.19">
  <defs>
    <style>
      .cls-1 {
        fill: #ffd00a;
      }
    </style>
  </defs>
  <path class="cls-1" d="M77.77,75.53v16.7c0,1.15-.94,2.09-2.09,2.09h-4.37c-.78,0-1.55-.18-2.26-.52l-37.03-18.03c-.72-.35-1.18-1.08-1.18-1.88v-14.49c0-1.15.94-2.09,2.09-2.09h0c.35,0,.69.09,1,.26l15.51,8.46c1.4.76,1.46,2.75.11,3.6l-7.98,5.03c-1.39.87-1.27,2.93.2,3.65l13.83,6.73c.69.34,1.51.27,2.14-.18l15.32-11.02c.36-.26.78-.39,1.22-.39h1.39c1.15,0,2.09.94,2.09,2.09Z"/>
  <path class="cls-1" d="M77.77,49.1v16.7c0,1.15-.94,2.09-2.09,2.09h-4.37c-.78,0-1.55-.18-2.26-.52l-37.03-18.03c-.72-.35-1.18-1.08-1.18-1.88v-14.49c0-1.15.94-2.09,2.09-2.09h0c.35,0,.69.09,1,.26l15.51,8.46c1.4.76,1.46,2.75.11,3.6l-7.98,5.03c-1.39.87-1.27,2.93.2,3.65l13.83,6.73c.69.34,1.51.27,2.14-.18l15.32-11.02c.36-.26.78-.39,1.22-.39h1.39c1.15,0,2.09.94,2.09,2.09Z"/>
</svg>