<?xml version="1.0" encoding="UTF-8"?>
<svg id="Layer_1" data-name="Layer 1" xmlns="http://www.w3.org/2000/svg" viewBox="0 0 108.47 125.31">
  <defs>
    <style>
      .cls-1 {
        fill: #fcfcfa;
      }
    </style>
  </defs>
  <path class="cls-1" d="M77.63,75.65v16.7c0,1.07-.87,1.95-1.95,1.95h-4.37c-.76,0-1.52-.17-2.2-.51l-37.03-18.03c-.67-.32-1.1-1.01-1.1-1.75v-14.49c0-1.08.87-1.95,1.95-1.95.32,0,.65.08.93.24l15.51,8.46c.61.34.99.95,1.01,1.65.02.7-.32,1.34-.91,1.71l-7.98,5.03c-.7.44-1.08,1.19-1.04,2.01.05.82.51,1.52,1.25,1.88l13.83,6.73c.74.36,1.61.28,2.28-.2l15.32-11.02c.33-.24.73-.37,1.14-.37h1.39c1.08,0,1.95.87,1.95,1.95Z"/>
  <path class="cls-1" d="M77.63,49.21v16.7c0,1.08-.87,1.95-1.95,1.95h-4.37c-.76,0-1.52-.17-2.2-.5l-37.03-18.03c-.67-.32-1.1-1.01-1.1-1.75v-14.49c0-1.08.87-1.95,1.95-1.95.32,0,.65.08.93.24l15.51,8.46c.61.34.99.95,1.01,1.65s-.32,1.34-.91,1.71l-7.98,5.03c-.7.44-1.08,1.19-1.04,2.01.05.82.51,1.52,1.25,1.89l13.83,6.73c.74.36,1.61.28,2.28-.19l15.32-11.02c.33-.24.73-.37,1.14-.37h1.39c1.08,0,1.95.88,1.95,1.95Z"/>
</svg>